<svg width="1440" height="228" viewBox="0 0 1440 228" fill="none" xmlns="http://www.w3.org/2000/svg">
<g clip-path="url(#clip0_164_8)">
<rect width="1440" height="228" fill="white"/>
<path d="M821.624 55.192C821.08 55.192 820.595 55.1653 820.168 55.112C819.752 55.0587 819.368 54.9733 819.016 54.856C818.675 54.7387 818.328 54.5893 817.976 54.408V52.312C818.424 52.6747 818.947 52.9627 819.544 53.176C820.152 53.3787 820.771 53.48 821.4 53.48C821.976 53.48 822.408 53.368 822.696 53.144C822.995 52.9093 823.144 52.5733 823.144 52.136C823.144 51.8053 823.021 51.5387 822.776 51.336C822.541 51.1333 822.227 50.9573 821.832 50.808C821.437 50.6587 821.005 50.504 820.536 50.344C820.205 50.2267 819.88 50.0987 819.56 49.96C819.251 49.8107 818.968 49.624 818.712 49.4C818.467 49.176 818.269 48.8987 818.12 48.568C817.971 48.2267 817.896 47.8107 817.896 47.32C817.896 46.9253 817.971 46.536 818.12 46.152C818.269 45.768 818.499 45.4267 818.808 45.128C819.117 44.8187 819.517 44.5733 820.008 44.392C820.499 44.2107 821.085 44.12 821.768 44.12C822.195 44.12 822.568 44.1467 822.888 44.2C823.219 44.2533 823.533 44.3333 823.832 44.44C824.131 44.5467 824.44 44.68 824.76 44.84V46.936C824.504 46.7547 824.232 46.584 823.944 46.424C823.656 46.2533 823.347 46.1147 823.016 46.008C822.696 45.9013 822.349 45.8427 821.976 45.832C821.592 45.8213 821.261 45.864 820.984 45.96C820.707 46.056 820.493 46.2 820.344 46.392C820.195 46.584 820.12 46.8133 820.12 47.08C820.12 47.4107 820.211 47.6773 820.392 47.88C820.573 48.072 820.829 48.232 821.16 48.36C821.491 48.488 821.869 48.6213 822.296 48.76C822.712 48.888 823.101 49.032 823.464 49.192C823.837 49.3413 824.163 49.5333 824.44 49.768C824.728 50.0027 824.952 50.2907 825.112 50.632C825.283 50.9733 825.368 51.3893 825.368 51.88C825.368 52.4773 825.229 53.0267 824.952 53.528C824.675 54.0293 824.259 54.4347 823.704 54.744C823.16 55.0427 822.467 55.192 821.624 55.192ZM830.781 55.24C829.458 55.24 828.466 54.872 827.805 54.136C827.144 53.4 826.813 52.3387 826.813 50.952C826.813 49.4693 827.149 48.392 827.821 47.72C828.504 47.048 829.485 46.712 830.765 46.712C831.661 46.712 832.408 46.872 833.005 47.192C833.602 47.5013 834.045 47.9707 834.333 48.6C834.632 49.2293 834.781 50.0133 834.781 50.952C834.781 52.3387 834.434 53.4 833.741 54.136C833.058 54.872 832.072 55.24 830.781 55.24ZM830.781 53.576C831.25 53.576 831.629 53.4693 831.917 53.256C832.216 53.0427 832.434 52.744 832.573 52.36C832.712 51.9653 832.781 51.496 832.781 50.952C832.781 50.344 832.706 49.848 832.557 49.464C832.418 49.08 832.2 48.7973 831.901 48.616C831.613 48.4347 831.24 48.344 830.781 48.344C830.312 48.344 829.933 48.44 829.645 48.632C829.357 48.824 829.144 49.112 829.005 49.496C828.877 49.88 828.813 50.3653 828.813 50.952C828.813 51.8053 828.968 52.456 829.277 52.904C829.586 53.352 830.088 53.576 830.781 53.576ZM840.141 55.24C839.693 55.24 839.255 55.2133 838.829 55.16C838.413 55.1067 838.034 55.0107 837.693 54.872C837.362 54.7227 837.095 54.52 836.893 54.264C836.69 54.008 836.589 53.6773 836.589 53.272V43.832H838.589V48.2L838.141 47.56C838.343 47.368 838.594 47.2133 838.893 47.096C839.191 46.9787 839.495 46.8933 839.805 46.84C840.125 46.776 840.391 46.744 840.605 46.744C841.81 46.744 842.717 47.1067 843.325 47.832C843.943 48.5467 844.253 49.5707 844.253 50.904C844.253 51.7573 844.141 52.4667 843.917 53.032C843.703 53.5867 843.405 54.024 843.021 54.344C842.637 54.664 842.199 54.8933 841.709 55.032C841.218 55.1707 840.695 55.24 840.141 55.24ZM840.077 53.528C840.631 53.528 841.063 53.416 841.373 53.192C841.682 52.968 841.901 52.6693 842.029 52.296C842.157 51.9227 842.221 51.496 842.221 51.016C842.221 50.408 842.141 49.912 841.981 49.528C841.821 49.144 841.591 48.8613 841.293 48.68C840.994 48.488 840.626 48.392 840.189 48.392C839.943 48.392 839.671 48.424 839.373 48.488C839.085 48.552 838.823 48.6533 838.589 48.792V52.76C838.589 52.9627 838.658 53.1227 838.797 53.24C838.946 53.3467 839.133 53.4213 839.357 53.464C839.591 53.5067 839.831 53.528 840.077 53.528ZM846.058 55V47.72C846.207 47.624 846.468 47.496 846.842 47.336C847.226 47.176 847.668 47.0373 848.17 46.92C848.671 46.792 849.178 46.728 849.69 46.728C850.074 46.728 850.378 46.76 850.602 46.824C850.836 46.8773 851.018 46.9467 851.146 47.032V48.568C850.932 48.536 850.687 48.5093 850.41 48.488C850.143 48.4667 849.866 48.4613 849.578 48.472C849.3 48.472 849.028 48.4827 848.762 48.504C848.506 48.5253 848.282 48.552 848.09 48.584V55H846.058ZM855.86 55.24C855.06 55.24 854.361 55.08 853.764 54.76C853.166 54.4293 852.702 53.9493 852.372 53.32C852.041 52.6907 851.876 51.9333 851.876 51.048C851.876 49.64 852.212 48.568 852.884 47.832C853.566 47.0853 854.521 46.712 855.748 46.712C856.633 46.712 857.342 46.904 857.876 47.288C858.42 47.672 858.814 48.2213 859.06 48.936C859.316 49.64 859.438 50.4827 859.428 51.464H853.188L853.028 50.088H857.812L857.428 50.664C857.406 49.8213 857.257 49.2187 856.98 48.856C856.713 48.4827 856.281 48.296 855.684 48.296C855.321 48.296 855.001 48.3813 854.724 48.552C854.457 48.712 854.249 48.984 854.1 49.368C853.961 49.752 853.892 50.28 853.892 50.952C853.892 51.784 854.089 52.424 854.484 52.872C854.878 53.3093 855.481 53.528 856.292 53.528C856.622 53.528 856.937 53.496 857.236 53.432C857.545 53.3573 857.828 53.272 858.084 53.176C858.35 53.08 858.574 52.9893 858.756 52.904V54.696C858.382 54.856 857.956 54.984 857.476 55.08C857.006 55.1867 856.468 55.24 855.86 55.24ZM865.698 47.608C865.922 47.5013 866.189 47.3947 866.498 47.288C866.807 47.1813 867.143 47.0907 867.506 47.016C867.869 46.9307 868.231 46.8667 868.594 46.824C868.967 46.7707 869.319 46.744 869.65 46.744C870.397 46.744 871.015 46.8453 871.506 47.048C872.007 47.24 872.381 47.5493 872.626 47.976C872.882 48.392 873.01 48.9413 873.01 49.624V55H870.994V49.976C870.994 49.7733 870.967 49.5813 870.914 49.4C870.861 49.208 870.77 49.0427 870.642 48.904C870.514 48.7547 870.338 48.6427 870.114 48.568C869.89 48.4827 869.602 48.44 869.25 48.44C868.983 48.44 868.711 48.4667 868.434 48.52C868.157 48.5733 867.922 48.6427 867.73 48.728V55H865.698V47.608ZM878.781 55.24C877.458 55.24 876.466 54.872 875.805 54.136C875.144 53.4 874.813 52.3387 874.813 50.952C874.813 49.4693 875.149 48.392 875.821 47.72C876.504 47.048 877.485 46.712 878.765 46.712C879.661 46.712 880.408 46.872 881.005 47.192C881.602 47.5013 882.045 47.9707 882.333 48.6C882.632 49.2293 882.781 50.0133 882.781 50.952C882.781 52.3387 882.434 53.4 881.741 54.136C881.058 54.872 880.072 55.24 878.781 55.24ZM878.781 53.576C879.25 53.576 879.629 53.4693 879.917 53.256C880.216 53.0427 880.434 52.744 880.573 52.36C880.712 51.9653 880.781 51.496 880.781 50.952C880.781 50.344 880.706 49.848 880.557 49.464C880.418 49.08 880.2 48.7973 879.901 48.616C879.613 48.4347 879.24 48.344 878.781 48.344C878.312 48.344 877.933 48.44 877.645 48.632C877.357 48.824 877.144 49.112 877.005 49.496C876.877 49.88 876.813 50.3653 876.813 50.952C876.813 51.8053 876.968 52.456 877.277 52.904C877.586 53.352 878.088 53.576 878.781 53.576ZM878.157 45.88L878.957 43.944H880.957L879.309 45.88H878.157ZM886.957 55.24C886.381 55.24 885.89 55.176 885.485 55.048C885.079 54.9307 884.69 54.7867 884.317 54.616V52.792C884.562 52.952 884.818 53.1067 885.085 53.256C885.362 53.3947 885.655 53.5067 885.965 53.592C886.285 53.6773 886.626 53.72 886.989 53.72C887.415 53.72 887.73 53.64 887.933 53.48C888.146 53.3093 888.253 53.1067 888.253 52.872C888.253 52.648 888.173 52.4773 888.013 52.36C887.853 52.232 887.645 52.1253 887.389 52.04C887.133 51.9547 886.861 51.8693 886.573 51.784C886.306 51.72 886.034 51.6347 885.757 51.528C885.49 51.4213 885.245 51.2773 885.021 51.096C884.797 50.9147 884.615 50.6853 884.477 50.408C884.349 50.12 884.285 49.7733 884.285 49.368C884.285 48.888 884.381 48.4827 884.573 48.152C884.765 47.8213 885.015 47.5547 885.325 47.352C885.634 47.1493 885.975 47.0053 886.349 46.92C886.722 46.824 887.085 46.776 887.437 46.776C888.045 46.7973 888.535 46.872 888.909 47C889.282 47.1173 889.634 47.272 889.965 47.464L889.981 49.112C889.607 48.9093 889.245 48.728 888.893 48.568C888.541 48.3973 888.141 48.312 887.693 48.312C887.277 48.312 886.951 48.3867 886.717 48.536C886.493 48.6747 886.381 48.872 886.381 49.128C886.381 49.352 886.45 49.5333 886.589 49.672C886.727 49.8107 886.909 49.9173 887.133 49.992C887.357 50.0667 887.602 50.1413 887.869 50.216C888.135 50.2907 888.413 50.376 888.701 50.472C888.989 50.5573 889.255 50.6853 889.501 50.856C889.746 51.0267 889.943 51.256 890.093 51.544C890.253 51.8213 890.333 52.1947 890.333 52.664C890.322 53.2827 890.157 53.784 889.837 54.168C889.517 54.5413 889.095 54.8133 888.573 54.984C888.061 55.1547 887.522 55.24 886.957 55.24Z" fill="white"/>
<path d="M921.376 51.336V55H919.2V44.328H923.712C924.939 44.328 925.899 44.6107 926.592 45.176C927.285 45.7413 927.632 46.6 927.632 47.752C927.632 48.904 927.285 49.7893 926.592 50.408C925.899 51.0267 924.939 51.336 923.712 51.336H921.376ZM921.376 49.592H923.44C923.803 49.592 924.107 49.5493 924.352 49.464C924.597 49.368 924.789 49.24 924.928 49.08C925.067 48.9093 925.163 48.7227 925.216 48.52C925.28 48.3173 925.312 48.0987 925.312 47.864C925.312 47.6187 925.28 47.3893 925.216 47.176C925.163 46.9627 925.067 46.7707 924.928 46.6C924.789 46.4293 924.597 46.3013 924.352 46.216C924.107 46.12 923.803 46.072 923.44 46.072H921.376V49.592ZM931.527 55H929.511V43.896H931.527V55ZM936.769 55.24C936.321 55.24 935.894 55.1973 935.489 55.112C935.083 55.0267 934.721 54.888 934.401 54.696C934.081 54.4933 933.825 54.2213 933.633 53.88C933.451 53.528 933.361 53.0907 933.361 52.568C933.361 52.024 933.473 51.5653 933.697 51.192C933.921 50.808 934.246 50.52 934.673 50.328C935.11 50.1253 935.643 50.024 936.273 50.024C936.657 50.024 937.014 50.0613 937.345 50.136C937.675 50.2 937.974 50.2907 938.241 50.408C938.507 50.5253 938.726 50.6533 938.897 50.792L939.041 51.928C938.817 51.7787 938.529 51.6613 938.177 51.576C937.835 51.48 937.462 51.432 937.057 51.432C936.491 51.432 936.07 51.5227 935.793 51.704C935.515 51.8853 935.377 52.168 935.377 52.552C935.377 52.8187 935.451 53.0427 935.601 53.224C935.75 53.3947 935.942 53.528 936.177 53.624C936.411 53.7093 936.657 53.752 936.913 53.752C937.499 53.752 937.921 53.7147 938.177 53.64C938.443 53.5547 938.577 53.3787 938.577 53.112V49.928C938.577 49.4053 938.411 49.0267 938.081 48.792C937.75 48.5467 937.286 48.424 936.689 48.424C936.23 48.424 935.761 48.504 935.281 48.664C934.801 48.8133 934.411 49.0107 934.113 49.256V47.416C934.401 47.2347 934.833 47.0747 935.409 46.936C935.985 46.7973 936.603 46.728 937.265 46.728C937.542 46.728 937.835 46.7547 938.145 46.808C938.454 46.8613 938.747 46.9467 939.025 47.064C939.313 47.1813 939.574 47.3467 939.809 47.56C940.043 47.7627 940.23 48.024 940.369 48.344C940.507 48.6533 940.577 49.032 940.577 49.48V53.304C940.577 53.8053 940.417 54.2 940.097 54.488C939.777 54.7653 939.334 54.9573 938.769 55.064C938.203 55.1813 937.537 55.24 936.769 55.24ZM942.823 47.608C943.047 47.5013 943.314 47.3947 943.623 47.288C943.932 47.1813 944.268 47.0907 944.631 47.016C944.994 46.9307 945.356 46.8667 945.719 46.824C946.092 46.7707 946.444 46.744 946.775 46.744C947.522 46.744 948.14 46.8453 948.631 47.048C949.132 47.24 949.506 47.5493 949.751 47.976C950.007 48.392 950.135 48.9413 950.135 49.624V55H948.119V49.976C948.119 49.7733 948.092 49.5813 948.039 49.4C947.986 49.208 947.895 49.0427 947.767 48.904C947.639 48.7547 947.463 48.6427 947.239 48.568C947.015 48.4827 946.727 48.44 946.375 48.44C946.108 48.44 945.836 48.4667 945.559 48.52C945.282 48.5733 945.047 48.6427 944.855 48.728V55H942.823V47.608ZM955.906 55.24C954.583 55.24 953.591 54.872 952.93 54.136C952.269 53.4 951.938 52.3387 951.938 50.952C951.938 49.4693 952.274 48.392 952.946 47.72C953.629 47.048 954.61 46.712 955.89 46.712C956.786 46.712 957.533 46.872 958.13 47.192C958.727 47.5013 959.17 47.9707 959.458 48.6C959.757 49.2293 959.906 50.0133 959.906 50.952C959.906 52.3387 959.559 53.4 958.866 54.136C958.183 54.872 957.197 55.24 955.906 55.24ZM955.906 53.576C956.375 53.576 956.754 53.4693 957.042 53.256C957.341 53.0427 957.559 52.744 957.698 52.36C957.837 51.9653 957.906 51.496 957.906 50.952C957.906 50.344 957.831 49.848 957.682 49.464C957.543 49.08 957.325 48.7973 957.026 48.616C956.738 48.4347 956.365 48.344 955.906 48.344C955.437 48.344 955.058 48.44 954.77 48.632C954.482 48.824 954.269 49.112 954.13 49.496C954.002 49.88 953.938 50.3653 953.938 50.952C953.938 51.8053 954.093 52.456 954.402 52.904C954.711 53.352 955.213 53.576 955.906 53.576ZM964.082 55.24C963.506 55.24 963.015 55.176 962.61 55.048C962.204 54.9307 961.815 54.7867 961.442 54.616V52.792C961.687 52.952 961.943 53.1067 962.21 53.256C962.487 53.3947 962.78 53.5067 963.09 53.592C963.41 53.6773 963.751 53.72 964.114 53.72C964.54 53.72 964.855 53.64 965.058 53.48C965.271 53.3093 965.378 53.1067 965.378 52.872C965.378 52.648 965.298 52.4773 965.138 52.36C964.978 52.232 964.77 52.1253 964.514 52.04C964.258 51.9547 963.986 51.8693 963.698 51.784C963.431 51.72 963.159 51.6347 962.882 51.528C962.615 51.4213 962.37 51.2773 962.146 51.096C961.922 50.9147 961.74 50.6853 961.602 50.408C961.474 50.12 961.41 49.7733 961.41 49.368C961.41 48.888 961.506 48.4827 961.698 48.152C961.89 47.8213 962.14 47.5547 962.45 47.352C962.759 47.1493 963.1 47.0053 963.474 46.92C963.847 46.824 964.21 46.776 964.562 46.776C965.17 46.7973 965.66 46.872 966.034 47C966.407 47.1173 966.759 47.272 967.09 47.464L967.106 49.112C966.732 48.9093 966.37 48.728 966.018 48.568C965.666 48.3973 965.266 48.312 964.818 48.312C964.402 48.312 964.076 48.3867 963.842 48.536C963.618 48.6747 963.506 48.872 963.506 49.128C963.506 49.352 963.575 49.5333 963.714 49.672C963.852 49.8107 964.034 49.9173 964.258 49.992C964.482 50.0667 964.727 50.1413 964.994 50.216C965.26 50.2907 965.538 50.376 965.826 50.472C966.114 50.5573 966.38 50.6853 966.626 50.856C966.871 51.0267 967.068 51.256 967.218 51.544C967.378 51.8213 967.458 52.1947 967.458 52.664C967.447 53.2827 967.282 53.784 966.962 54.168C966.642 54.5413 966.22 54.8133 965.698 54.984C965.186 55.1547 964.647 55.24 964.082 55.24Z" fill="white"/>
<path d="M998.584 55V46.072H995.352V44.328H1004.01V46.072H1000.76V55H998.584ZM1007.64 55.24C1006.84 55.24 1006.14 55.08 1005.54 54.76C1004.95 54.4293 1004.48 53.9493 1004.15 53.32C1003.82 52.6907 1003.66 51.9333 1003.66 51.048C1003.66 49.64 1003.99 48.568 1004.66 47.832C1005.35 47.0853 1006.3 46.712 1007.53 46.712C1008.41 46.712 1009.12 46.904 1009.66 47.288C1010.2 47.672 1010.6 48.2213 1010.84 48.936C1011.1 49.64 1011.22 50.4827 1011.21 51.464H1004.97L1004.81 50.088H1009.59L1009.21 50.664C1009.19 49.8213 1009.04 49.2187 1008.76 48.856C1008.49 48.4827 1008.06 48.296 1007.46 48.296C1007.1 48.296 1006.78 48.3813 1006.5 48.552C1006.24 48.712 1006.03 48.984 1005.88 49.368C1005.74 49.752 1005.67 50.28 1005.67 50.952C1005.67 51.784 1005.87 52.424 1006.26 52.872C1006.66 53.3093 1007.26 53.528 1008.07 53.528C1008.4 53.528 1008.72 53.496 1009.02 53.432C1009.33 53.3573 1009.61 53.272 1009.86 53.176C1010.13 53.08 1010.36 52.9893 1010.54 52.904V54.696C1010.16 54.856 1009.74 54.984 1009.26 55.08C1008.79 55.1867 1008.25 55.24 1007.64 55.24ZM1015.36 55.24C1014.79 55.24 1014.3 55.176 1013.89 55.048C1013.49 54.9307 1013.1 54.7867 1012.72 54.616V52.792C1012.97 52.952 1013.22 53.1067 1013.49 53.256C1013.77 53.3947 1014.06 53.5067 1014.37 53.592C1014.69 53.6773 1015.03 53.72 1015.4 53.72C1015.82 53.72 1016.14 53.64 1016.34 53.48C1016.55 53.3093 1016.66 53.1067 1016.66 52.872C1016.66 52.648 1016.58 52.4773 1016.42 52.36C1016.26 52.232 1016.05 52.1253 1015.8 52.04C1015.54 51.9547 1015.27 51.8693 1014.98 51.784C1014.71 51.72 1014.44 51.6347 1014.16 51.528C1013.9 51.4213 1013.65 51.2773 1013.43 51.096C1013.2 50.9147 1013.02 50.6853 1012.88 50.408C1012.76 50.12 1012.69 49.7733 1012.69 49.368C1012.69 48.888 1012.79 48.4827 1012.98 48.152C1013.17 47.8213 1013.42 47.5547 1013.73 47.352C1014.04 47.1493 1014.38 47.0053 1014.76 46.92C1015.13 46.824 1015.49 46.776 1015.84 46.776C1016.45 46.7973 1016.94 46.872 1017.32 47C1017.69 47.1173 1018.04 47.272 1018.37 47.464L1018.39 49.112C1018.01 48.9093 1017.65 48.728 1017.3 48.568C1016.95 48.3973 1016.55 48.312 1016.1 48.312C1015.68 48.312 1015.36 48.3867 1015.12 48.536C1014.9 48.6747 1014.79 48.872 1014.79 49.128C1014.79 49.352 1014.86 49.5333 1015 49.672C1015.13 49.8107 1015.32 49.9173 1015.54 49.992C1015.76 50.0667 1016.01 50.1413 1016.28 50.216C1016.54 50.2907 1016.82 50.376 1017.11 50.472C1017.4 50.5573 1017.66 50.6853 1017.91 50.856C1018.15 51.0267 1018.35 51.256 1018.5 51.544C1018.66 51.8213 1018.74 52.1947 1018.74 52.664C1018.73 53.2827 1018.56 53.784 1018.24 54.168C1017.92 54.5413 1017.5 54.8133 1016.98 54.984C1016.47 55.1547 1015.93 55.24 1015.36 55.24ZM1023.66 55.256C1022.83 55.256 1022.19 55.0533 1021.76 54.648C1021.32 54.232 1021.1 53.6347 1021.1 52.856V48.536H1019.85V46.936H1021.1V44.712H1023.2V46.936H1025.07V48.536H1023.2V52.536C1023.2 52.8667 1023.26 53.112 1023.39 53.272C1023.52 53.432 1023.74 53.512 1024.06 53.512C1024.23 53.512 1024.41 53.4853 1024.59 53.432C1024.78 53.368 1024.94 53.2933 1025.07 53.208V54.968C1024.86 55.0747 1024.62 55.1493 1024.37 55.192C1024.12 55.2347 1023.89 55.256 1023.66 55.256ZM1030.5 55.24C1029.7 55.24 1029 55.08 1028.4 54.76C1027.81 54.4293 1027.34 53.9493 1027.01 53.32C1026.68 52.6907 1026.52 51.9333 1026.52 51.048C1026.52 49.64 1026.85 48.568 1027.52 47.832C1028.21 47.0853 1029.16 46.712 1030.39 46.712C1031.27 46.712 1031.98 46.904 1032.52 47.288C1033.06 47.672 1033.45 48.2213 1033.7 48.936C1033.96 49.64 1034.08 50.4827 1034.07 51.464H1027.83L1027.67 50.088H1032.45L1032.07 50.664C1032.05 49.8213 1031.9 49.2187 1031.62 48.856C1031.35 48.4827 1030.92 48.296 1030.32 48.296C1029.96 48.296 1029.64 48.3813 1029.36 48.552C1029.1 48.712 1028.89 48.984 1028.74 49.368C1028.6 49.752 1028.53 50.28 1028.53 50.952C1028.53 51.784 1028.73 52.424 1029.12 52.872C1029.52 53.3093 1030.12 53.528 1030.93 53.528C1031.26 53.528 1031.58 53.496 1031.88 53.432C1032.19 53.3573 1032.47 53.272 1032.72 53.176C1032.99 53.08 1033.21 52.9893 1033.4 52.904V54.696C1033.02 54.856 1032.6 54.984 1032.12 55.08C1031.65 55.1867 1031.11 55.24 1030.5 55.24ZM1044.05 55.24C1043.5 55.24 1042.97 55.176 1042.47 55.048C1041.97 54.92 1041.52 54.696 1041.14 54.376C1040.75 54.056 1040.45 53.6133 1040.23 53.048C1040.01 52.4827 1039.91 51.7627 1039.91 50.888C1039.91 49.5973 1040.22 48.5787 1040.85 47.832C1041.48 47.0853 1042.43 46.712 1043.71 46.712C1043.9 46.712 1044.13 46.7333 1044.42 46.776C1044.71 46.8187 1045 46.8933 1045.3 47C1045.61 47.096 1045.87 47.2507 1046.1 47.464L1045.65 48.104V43.592H1047.65V53.112C1047.65 53.4747 1047.54 53.7893 1047.33 54.056C1047.13 54.3227 1046.85 54.5467 1046.5 54.728C1046.15 54.8987 1045.76 55.0267 1045.33 55.112C1044.9 55.1973 1044.48 55.24 1044.05 55.24ZM1044.11 53.512C1044.55 53.512 1044.91 53.4587 1045.2 53.352C1045.5 53.2453 1045.65 53.0907 1045.65 52.888V48.792C1045.42 48.6533 1045.17 48.552 1044.9 48.488C1044.63 48.424 1044.38 48.392 1044.13 48.392C1043.64 48.392 1043.23 48.4827 1042.91 48.664C1042.59 48.8347 1042.35 49.112 1042.19 49.496C1042.03 49.8693 1041.95 50.3493 1041.95 50.936C1041.95 51.448 1042.02 51.896 1042.15 52.28C1042.27 52.664 1042.49 52.968 1042.8 53.192C1043.12 53.4053 1043.56 53.512 1044.11 53.512ZM1053.44 55.24C1052.64 55.24 1051.94 55.08 1051.34 54.76C1050.74 54.4293 1050.28 53.9493 1049.95 53.32C1049.62 52.6907 1049.45 51.9333 1049.45 51.048C1049.45 49.64 1049.79 48.568 1050.46 47.832C1051.14 47.0853 1052.1 46.712 1053.33 46.712C1054.21 46.712 1054.92 46.904 1055.45 47.288C1056 47.672 1056.39 48.2213 1056.64 48.936C1056.89 49.64 1057.02 50.4827 1057.01 51.464H1050.77L1050.61 50.088H1055.39L1055.01 50.664C1054.98 49.8213 1054.83 49.2187 1054.56 48.856C1054.29 48.4827 1053.86 48.296 1053.26 48.296C1052.9 48.296 1052.58 48.3813 1052.3 48.552C1052.03 48.712 1051.83 48.984 1051.68 49.368C1051.54 49.752 1051.47 50.28 1051.47 50.952C1051.47 51.784 1051.67 52.424 1052.06 52.872C1052.46 53.3093 1053.06 53.528 1053.87 53.528C1054.2 53.528 1054.51 53.496 1054.81 53.432C1055.12 53.3573 1055.41 53.272 1055.66 53.176C1055.93 53.08 1056.15 52.9893 1056.33 52.904V54.696C1055.96 54.856 1055.53 54.984 1055.05 55.08C1054.58 55.1867 1054.05 55.24 1053.44 55.24ZM1065.98 55L1062.6 46.936H1064.78L1067.39 53.4L1066.89 53.432L1069.28 46.936H1071.39L1068.01 55H1065.98ZM1076 55.24C1075.2 55.24 1074.5 55.08 1073.9 54.76C1073.31 54.4293 1072.84 53.9493 1072.51 53.32C1072.18 52.6907 1072.02 51.9333 1072.02 51.048C1072.02 49.64 1072.35 48.568 1073.02 47.832C1073.71 47.0853 1074.66 46.712 1075.89 46.712C1076.77 46.712 1077.48 46.904 1078.02 47.288C1078.56 47.672 1078.95 48.2213 1079.2 48.936C1079.46 49.64 1079.58 50.4827 1079.57 51.464H1073.33L1073.17 50.088H1077.95L1077.57 50.664C1077.55 49.8213 1077.4 49.2187 1077.12 48.856C1076.85 48.4827 1076.42 48.296 1075.82 48.296C1075.46 48.296 1075.14 48.3813 1074.86 48.552C1074.6 48.712 1074.39 48.984 1074.24 49.368C1074.1 49.752 1074.03 50.28 1074.03 50.952C1074.03 51.784 1074.23 52.424 1074.62 52.872C1075.02 53.3093 1075.62 53.528 1076.43 53.528C1076.76 53.528 1077.08 53.496 1077.38 53.432C1077.69 53.3573 1077.97 53.272 1078.22 53.176C1078.49 53.08 1078.71 52.9893 1078.9 52.904V54.696C1078.52 54.856 1078.1 54.984 1077.62 55.08C1077.15 55.1867 1076.61 55.24 1076 55.24ZM1083.37 55H1081.35V43.896H1083.37V55ZM1089.14 55.24C1087.82 55.24 1086.83 54.872 1086.16 54.136C1085.5 53.4 1085.17 52.3387 1085.17 50.952C1085.17 49.4693 1085.51 48.392 1086.18 47.72C1086.86 47.048 1087.84 46.712 1089.12 46.712C1090.02 46.712 1090.77 46.872 1091.36 47.192C1091.96 47.5013 1092.4 47.9707 1092.69 48.6C1092.99 49.2293 1093.14 50.0133 1093.14 50.952C1093.14 52.3387 1092.79 53.4 1092.1 54.136C1091.42 54.872 1090.43 55.24 1089.14 55.24ZM1089.14 53.576C1089.61 53.576 1089.99 53.4693 1090.28 53.256C1090.58 53.0427 1090.79 52.744 1090.93 52.36C1091.07 51.9653 1091.14 51.496 1091.14 50.952C1091.14 50.344 1091.07 49.848 1090.92 49.464C1090.78 49.08 1090.56 48.7973 1090.26 48.616C1089.97 48.4347 1089.6 48.344 1089.14 48.344C1088.67 48.344 1088.29 48.44 1088 48.632C1087.72 48.824 1087.5 49.112 1087.36 49.496C1087.24 49.88 1087.17 50.3653 1087.17 50.952C1087.17 51.8053 1087.33 52.456 1087.64 52.904C1087.95 53.352 1088.45 53.576 1089.14 53.576ZM1098.61 55.176C1098.08 55.176 1097.57 55.1013 1097.08 54.952C1096.59 54.8027 1096.15 54.5627 1095.76 54.232C1095.38 53.9013 1095.08 53.4747 1094.85 52.952C1094.63 52.4293 1094.52 51.7947 1094.52 51.048C1094.52 50.2693 1094.62 49.608 1094.84 49.064C1095.05 48.52 1095.34 48.0773 1095.72 47.736C1096.09 47.384 1096.52 47.1333 1097.01 46.984C1097.51 46.824 1098.04 46.744 1098.6 46.744C1099.02 46.744 1099.46 46.7867 1099.91 46.872C1100.36 46.9573 1100.76 47.08 1101.11 47.24V49C1100.75 48.84 1100.38 48.712 1100.02 48.616C1099.66 48.5093 1099.28 48.456 1098.9 48.456C1098.15 48.456 1097.57 48.6427 1097.16 49.016C1096.74 49.3893 1096.53 50.0027 1096.53 50.856C1096.53 51.7307 1096.72 52.3813 1097.09 52.808C1097.48 53.2347 1098.11 53.448 1098.98 53.448C1099.37 53.448 1099.76 53.3893 1100.13 53.272C1100.51 53.144 1100.84 53.0053 1101.12 52.856V54.632C1100.75 54.8133 1100.36 54.9467 1099.96 55.032C1099.55 55.128 1099.1 55.176 1098.61 55.176ZM1102.98 55V47.016H1105.01L1105.03 55H1102.98ZM1102.93 45.736V44.072H1105.06V45.736H1102.93ZM1111.02 55.24C1110.46 55.24 1109.94 55.176 1109.44 55.048C1108.93 54.92 1108.49 54.696 1108.11 54.376C1107.72 54.056 1107.42 53.6133 1107.2 53.048C1106.98 52.4827 1106.88 51.7627 1106.88 50.888C1106.88 49.5973 1107.19 48.5787 1107.82 47.832C1108.45 47.0853 1109.4 46.712 1110.68 46.712C1110.86 46.712 1111.1 46.7333 1111.39 46.776C1111.68 46.8187 1111.97 46.8933 1112.27 47C1112.58 47.096 1112.84 47.2507 1113.07 47.464L1112.62 48.104V43.592H1114.62V53.112C1114.62 53.4747 1114.51 53.7893 1114.3 54.056C1114.1 54.3227 1113.82 54.5467 1113.47 54.728C1113.12 54.8987 1112.73 55.0267 1112.3 55.112C1111.87 55.1973 1111.45 55.24 1111.02 55.24ZM1111.08 53.512C1111.52 53.512 1111.88 53.4587 1112.17 53.352C1112.47 53.2453 1112.62 53.0907 1112.62 52.888V48.792C1112.38 48.6533 1112.13 48.552 1111.87 48.488C1111.6 48.424 1111.34 48.392 1111.1 48.392C1110.61 48.392 1110.2 48.4827 1109.88 48.664C1109.56 48.8347 1109.32 49.112 1109.16 49.496C1109 49.8693 1108.92 50.3493 1108.92 50.936C1108.92 51.448 1108.99 51.896 1109.12 52.28C1109.24 52.664 1109.46 52.968 1109.77 53.192C1110.09 53.4053 1110.53 53.512 1111.08 53.512ZM1119.86 55.24C1119.41 55.24 1118.99 55.1973 1118.58 55.112C1118.18 55.0267 1117.81 54.888 1117.49 54.696C1117.17 54.4933 1116.92 54.2213 1116.73 53.88C1116.55 53.528 1116.45 53.0907 1116.45 52.568C1116.45 52.024 1116.57 51.5653 1116.79 51.192C1117.01 50.808 1117.34 50.52 1117.77 50.328C1118.2 50.1253 1118.74 50.024 1119.37 50.024C1119.75 50.024 1120.11 50.0613 1120.44 50.136C1120.77 50.2 1121.07 50.2907 1121.33 50.408C1121.6 50.5253 1121.82 50.6533 1121.99 50.792L1122.13 51.928C1121.91 51.7787 1121.62 51.6613 1121.27 51.576C1120.93 51.48 1120.56 51.432 1120.15 51.432C1119.59 51.432 1119.16 51.5227 1118.89 51.704C1118.61 51.8853 1118.47 52.168 1118.47 52.552C1118.47 52.8187 1118.55 53.0427 1118.69 53.224C1118.84 53.3947 1119.04 53.528 1119.27 53.624C1119.51 53.7093 1119.75 53.752 1120.01 53.752C1120.59 53.752 1121.01 53.7147 1121.27 53.64C1121.54 53.5547 1121.67 53.3787 1121.67 53.112V49.928C1121.67 49.4053 1121.51 49.0267 1121.17 48.792C1120.84 48.5467 1120.38 48.424 1119.78 48.424C1119.32 48.424 1118.85 48.504 1118.37 48.664C1117.89 48.8133 1117.51 49.0107 1117.21 49.256V47.416C1117.49 47.2347 1117.93 47.0747 1118.5 46.936C1119.08 46.7973 1119.7 46.728 1120.36 46.728C1120.64 46.728 1120.93 46.7547 1121.24 46.808C1121.55 46.8613 1121.84 46.9467 1122.12 47.064C1122.41 47.1813 1122.67 47.3467 1122.9 47.56C1123.14 47.7627 1123.32 48.024 1123.46 48.344C1123.6 48.6533 1123.67 49.032 1123.67 49.48V53.304C1123.67 53.8053 1123.51 54.2 1123.19 54.488C1122.87 54.7653 1122.43 54.9573 1121.86 55.064C1121.3 55.1813 1120.63 55.24 1119.86 55.24ZM1129.63 55.24C1129.07 55.24 1128.55 55.176 1128.04 55.048C1127.54 54.92 1127.1 54.696 1126.72 54.376C1126.33 54.056 1126.03 53.6133 1125.8 53.048C1125.59 52.4827 1125.48 51.7627 1125.48 50.888C1125.48 49.5973 1125.8 48.5787 1126.43 47.832C1127.06 47.0853 1128.01 46.712 1129.29 46.712C1129.47 46.712 1129.71 46.7333 1130 46.776C1130.28 46.8187 1130.58 46.8933 1130.88 47C1131.19 47.096 1131.45 47.2507 1131.68 47.464L1131.23 48.104V43.592H1133.23V53.112C1133.23 53.4747 1133.12 53.7893 1132.91 54.056C1132.71 54.3227 1132.43 54.5467 1132.08 54.728C1131.72 54.8987 1131.34 55.0267 1130.91 55.112C1130.48 55.1973 1130.06 55.24 1129.63 55.24ZM1129.69 53.512C1130.13 53.512 1130.49 53.4587 1130.78 53.352C1131.08 53.2453 1131.23 53.0907 1131.23 52.888V48.792C1130.99 48.6533 1130.74 48.552 1130.48 48.488C1130.21 48.424 1129.95 48.392 1129.71 48.392C1129.22 48.392 1128.81 48.4827 1128.49 48.664C1128.17 48.8347 1127.93 49.112 1127.77 49.496C1127.61 49.8693 1127.53 50.3493 1127.53 50.936C1127.53 51.448 1127.6 51.896 1127.72 52.28C1127.85 52.664 1128.07 52.968 1128.38 53.192C1128.7 53.4053 1129.14 53.512 1129.69 53.512ZM1139.02 55.24C1138.22 55.24 1137.52 55.08 1136.92 54.76C1136.32 54.4293 1135.86 53.9493 1135.53 53.32C1135.2 52.6907 1135.03 51.9333 1135.03 51.048C1135.03 49.64 1135.37 48.568 1136.04 47.832C1136.72 47.0853 1137.68 46.712 1138.9 46.712C1139.79 46.712 1140.5 46.904 1141.03 47.288C1141.58 47.672 1141.97 48.2213 1142.22 48.936C1142.47 49.64 1142.59 50.4827 1142.58 51.464H1136.34L1136.18 50.088H1140.97L1140.58 50.664C1140.56 49.8213 1140.41 49.2187 1140.14 48.856C1139.87 48.4827 1139.44 48.296 1138.84 48.296C1138.48 48.296 1138.16 48.3813 1137.88 48.552C1137.61 48.712 1137.41 48.984 1137.26 49.368C1137.12 49.752 1137.05 50.28 1137.05 50.952C1137.05 51.784 1137.25 52.424 1137.64 52.872C1138.03 53.3093 1138.64 53.528 1139.45 53.528C1139.78 53.528 1140.09 53.496 1140.39 53.432C1140.7 53.3573 1140.98 53.272 1141.24 53.176C1141.51 53.08 1141.73 52.9893 1141.91 52.904V54.696C1141.54 54.856 1141.11 54.984 1140.63 55.08C1140.16 55.1867 1139.62 55.24 1139.02 55.24Z" fill="white"/>
<path d="M1175.84 55.176C1174.15 55.176 1172.87 54.728 1172 53.832C1171.13 52.9253 1170.69 51.5333 1170.69 49.656C1170.69 47.832 1171.11 46.456 1171.97 45.528C1172.82 44.5893 1174.11 44.12 1175.84 44.12C1176.41 44.12 1176.97 44.1893 1177.54 44.328C1178.11 44.4667 1178.67 44.6587 1179.2 44.904V46.824C1178.66 46.4827 1178.13 46.2373 1177.62 46.088C1177.1 45.9387 1176.61 45.864 1176.13 45.864C1175.42 45.864 1174.83 45.992 1174.35 46.248C1173.88 46.4933 1173.53 46.8933 1173.28 47.448C1173.05 48.0027 1172.93 48.744 1172.93 49.672C1172.93 50.5893 1173.05 51.3253 1173.3 51.88C1173.54 52.4347 1173.9 52.8347 1174.38 53.08C1174.87 53.3253 1175.48 53.448 1176.21 53.448C1176.65 53.448 1177.11 53.3733 1177.62 53.224C1178.13 53.0747 1178.66 52.8347 1179.2 52.504V54.424C1178.89 54.5733 1178.54 54.7067 1178.16 54.824C1177.79 54.9413 1177.4 55.0267 1177.01 55.08C1176.61 55.144 1176.22 55.176 1175.84 55.176ZM1184.69 55.24C1183.36 55.24 1182.37 54.872 1181.71 54.136C1181.05 53.4 1180.72 52.3387 1180.72 50.952C1180.72 49.4693 1181.06 48.392 1181.73 47.72C1182.41 47.048 1183.39 46.712 1184.67 46.712C1185.57 46.712 1186.31 46.872 1186.91 47.192C1187.51 47.5013 1187.95 47.9707 1188.24 48.6C1188.54 49.2293 1188.69 50.0133 1188.69 50.952C1188.69 52.3387 1188.34 53.4 1187.65 54.136C1186.96 54.872 1185.98 55.24 1184.69 55.24ZM1184.69 53.576C1185.16 53.576 1185.54 53.4693 1185.82 53.256C1186.12 53.0427 1186.34 52.744 1186.48 52.36C1186.62 51.9653 1186.69 51.496 1186.69 50.952C1186.69 50.344 1186.61 49.848 1186.46 49.464C1186.32 49.08 1186.11 48.7973 1185.81 48.616C1185.52 48.4347 1185.15 48.344 1184.69 48.344C1184.22 48.344 1183.84 48.44 1183.55 48.632C1183.26 48.824 1183.05 49.112 1182.91 49.496C1182.78 49.88 1182.72 50.3653 1182.72 50.952C1182.72 51.8053 1182.87 52.456 1183.18 52.904C1183.49 53.352 1183.99 53.576 1184.69 53.576ZM1190.5 47.608C1190.72 47.5013 1190.99 47.3947 1191.3 47.288C1191.6 47.1813 1191.94 47.0907 1192.3 47.016C1192.67 46.9307 1193.03 46.8667 1193.39 46.824C1193.76 46.7707 1194.12 46.744 1194.45 46.744C1195.19 46.744 1195.81 46.8453 1196.3 47.048C1196.8 47.24 1197.18 47.5493 1197.42 47.976C1197.68 48.392 1197.81 48.9413 1197.81 49.624V55H1195.79V49.976C1195.79 49.7733 1195.76 49.5813 1195.71 49.4C1195.66 49.208 1195.57 49.0427 1195.44 48.904C1195.31 48.7547 1195.14 48.6427 1194.91 48.568C1194.69 48.4827 1194.4 48.44 1194.05 48.44C1193.78 48.44 1193.51 48.4667 1193.23 48.52C1192.95 48.5733 1192.72 48.6427 1192.53 48.728V55H1190.5V47.608ZM1203.13 55.256C1202.3 55.256 1201.66 55.0533 1201.23 54.648C1200.79 54.232 1200.57 53.6347 1200.57 52.856V48.536H1199.32V46.936H1200.57V44.712H1202.67V46.936H1204.54V48.536H1202.67V52.536C1202.67 52.8667 1202.73 53.112 1202.86 53.272C1202.99 53.432 1203.21 53.512 1203.53 53.512C1203.7 53.512 1203.88 53.4853 1204.06 53.432C1204.25 53.368 1204.41 53.2933 1204.54 53.208V54.968C1204.32 55.0747 1204.09 55.1493 1203.83 55.192C1203.59 55.2347 1203.35 55.256 1203.13 55.256ZM1209.42 55.24C1208.98 55.24 1208.55 55.1973 1208.14 55.112C1207.74 55.0267 1207.38 54.888 1207.06 54.696C1206.74 54.4933 1206.48 54.2213 1206.29 53.88C1206.11 53.528 1206.02 53.0907 1206.02 52.568C1206.02 52.024 1206.13 51.5653 1206.35 51.192C1206.58 50.808 1206.9 50.52 1207.33 50.328C1207.77 50.1253 1208.3 50.024 1208.93 50.024C1209.31 50.024 1209.67 50.0613 1210 50.136C1210.33 50.2 1210.63 50.2907 1210.9 50.408C1211.16 50.5253 1211.38 50.6533 1211.55 50.792L1211.7 51.928C1211.47 51.7787 1211.18 51.6613 1210.83 51.576C1210.49 51.48 1210.12 51.432 1209.71 51.432C1209.15 51.432 1208.73 51.5227 1208.45 51.704C1208.17 51.8853 1208.03 52.168 1208.03 52.552C1208.03 52.8187 1208.11 53.0427 1208.26 53.224C1208.41 53.3947 1208.6 53.528 1208.83 53.624C1209.07 53.7093 1209.31 53.752 1209.57 53.752C1210.16 53.752 1210.58 53.7147 1210.83 53.64C1211.1 53.5547 1211.23 53.3787 1211.23 53.112V49.928C1211.23 49.4053 1211.07 49.0267 1210.74 48.792C1210.41 48.5467 1209.94 48.424 1209.34 48.424C1208.89 48.424 1208.42 48.504 1207.94 48.664C1207.46 48.8133 1207.07 49.0107 1206.77 49.256V47.416C1207.06 47.2347 1207.49 47.0747 1208.06 46.936C1208.64 46.7973 1209.26 46.728 1209.92 46.728C1210.2 46.728 1210.49 46.7547 1210.8 46.808C1211.11 46.8613 1211.4 46.9467 1211.68 47.064C1211.97 47.1813 1212.23 47.3467 1212.46 47.56C1212.7 47.7627 1212.89 48.024 1213.02 48.344C1213.16 48.6533 1213.23 49.032 1213.23 49.48V53.304C1213.23 53.8053 1213.07 54.2 1212.75 54.488C1212.43 54.7653 1211.99 54.9573 1211.42 55.064C1210.86 55.1813 1210.19 55.24 1209.42 55.24ZM1218.57 55.256C1217.74 55.256 1217.1 55.0533 1216.66 54.648C1216.23 54.232 1216.01 53.6347 1216.01 52.856V48.536H1214.76V46.936H1216.01V44.712H1218.1V46.936H1219.98V48.536H1218.1V52.536C1218.1 52.8667 1218.17 53.112 1218.3 53.272C1218.42 53.432 1218.65 53.512 1218.97 53.512C1219.14 53.512 1219.31 53.4853 1219.5 53.432C1219.69 53.368 1219.85 53.2933 1219.98 53.208V54.968C1219.76 55.0747 1219.53 55.1493 1219.27 55.192C1219.03 55.2347 1218.79 55.256 1218.57 55.256ZM1225.39 55.24C1224.07 55.24 1223.08 54.872 1222.41 54.136C1221.75 53.4 1221.42 52.3387 1221.42 50.952C1221.42 49.4693 1221.76 48.392 1222.43 47.72C1223.11 47.048 1224.09 46.712 1225.37 46.712C1226.27 46.712 1227.02 46.872 1227.61 47.192C1228.21 47.5013 1228.65 47.9707 1228.94 48.6C1229.24 49.2293 1229.39 50.0133 1229.39 50.952C1229.39 52.3387 1229.04 53.4 1228.35 54.136C1227.67 54.872 1226.68 55.24 1225.39 55.24ZM1225.39 53.576C1225.86 53.576 1226.24 53.4693 1226.53 53.256C1226.83 53.0427 1227.04 52.744 1227.18 52.36C1227.32 51.9653 1227.39 51.496 1227.39 50.952C1227.39 50.344 1227.32 49.848 1227.17 49.464C1227.03 49.08 1226.81 48.7973 1226.51 48.616C1226.22 48.4347 1225.85 48.344 1225.39 48.344C1224.92 48.344 1224.54 48.44 1224.25 48.632C1223.97 48.824 1223.75 49.112 1223.61 49.496C1223.49 49.88 1223.42 50.3653 1223.42 50.952C1223.42 51.8053 1223.58 52.456 1223.89 52.904C1224.2 53.352 1224.7 53.576 1225.39 53.576Z" fill="white"/>
<path d="M1457 -13H457V-13C457 43.7737 503.024 89.7979 559.798 89.7979H832.5C832.5 89.7979 1144.03 93.7376 1282.5 121.493C1420.97 149.248 1457 262 1457 262V-13Z" fill="url(#paint0_linear_164_8)"/>
<mask id="path-6-inside-1_164_8" fill="white">
<path d="M252 87.5C252 258.432 399.298 397 581 397C762.702 397 910 258.432 910 87.5C910 -83.4321 762.702 -222 581 -222C399.298 -222 252 -83.4321 252 87.5ZM708.969 87.5C708.969 153.986 651.675 207.884 581 207.884C510.325 207.884 453.031 153.986 453.031 87.5C453.031 21.0136 510.325 -32.8843 581 -32.8843C651.675 -32.8843 708.969 21.0136 708.969 87.5Z"/>
</mask>
<path d="M252 87.5C252 258.432 399.298 397 581 397C762.702 397 910 258.432 910 87.5C910 -83.4321 762.702 -222 581 -222C399.298 -222 252 -83.4321 252 87.5ZM708.969 87.5C708.969 153.986 651.675 207.884 581 207.884C510.325 207.884 453.031 153.986 453.031 87.5C453.031 21.0136 510.325 -32.8843 581 -32.8843C651.675 -32.8843 708.969 21.0136 708.969 87.5Z" stroke="white" stroke-opacity="0.2" stroke-width="2" stroke-dasharray="5 5" mask="url(#path-6-inside-1_164_8)"/>
<path d="M1136 -180C1136 -65.1248 1229.12 28 1344 28C1458.88 28 1552 -65.1248 1552 -180C1552 -294.875 1458.88 -388 1344 -388C1229.12 -388 1136 -294.875 1136 -180ZM1424.9 -180C1424.9 -135.318 1388.68 -99.0955 1344 -99.0955C1299.32 -99.0955 1263.1 -135.318 1263.1 -180C1263.1 -224.682 1299.32 -260.904 1344 -260.904C1388.68 -260.904 1424.9 -224.682 1424.9 -180Z" fill="#FF6355" fill-opacity="0.2"/>
<path d="M1025 -201C1025 -19.2983 1172.3 128 1354 128C1535.7 128 1683 -19.2983 1683 -201C1683 -382.702 1535.7 -530 1354 -530C1172.3 -530 1025 -382.702 1025 -201ZM1481.97 -201C1481.97 -130.325 1424.68 -73.0309 1354 -73.0309C1283.32 -73.0309 1226.03 -130.325 1226.03 -201C1226.03 -271.675 1283.32 -328.969 1354 -328.969C1424.68 -328.969 1481.97 -271.675 1481.97 -201Z" fill="#FF5067" fill-opacity="0.2"/>
</g>
<defs>
<linearGradient id="paint0_linear_164_8" x1="596.476" y1="130.193" x2="1443.26" y2="243.754" gradientUnits="userSpaceOnUse">
<stop stop-color="#C83C3C"/>
<stop offset="1" stop-color="#FF5661"/>
</linearGradient>
<clipPath id="clip0_164_8">
<rect width="1440" height="228" fill="white"/>
</clipPath>
</defs>
</svg>
